<?xml version="1.0" encoding="utf-8"?><svg width="auto" height="4170" style="overflow:visible " version="1.1" xmlns="http://www.w3.org/2000/svg"><rect x="20" y="20" width="200" height="40" style="fill:white;stroke:black;stroke-width:1" /><text x="30" y="30" font-size="10" style="fill:blue">xs:schema</text><text x="30" y="40" font-size="8" style="fill:black">xmlns: http://www.uniovi.es</text><text x="30" y="50" font-size="8" style="fill:black">elementFormDefault: qualified</text><text x="30" y="60" font-size="8" style="fill:black">targetNamespace: http://www.uniovi.es</text><text x="30" y="70" font-size="8" style="fill:black">xmlns:xs: http://www.w3.org/2001/XMLSchema</text><rect x="240" y="20" width="200" height="40" style="fill:white;stroke:black;stroke-width:1" /><text x="250" y="30" font-size="10" style="fill:blue">xs:element</text><path d="M220 40 C240 40 220 40 240 40" style="fill:transparent;stroke:black" /><text x="250" y="40" font-size="8" style="fill:black">name: circuito</text><rect x="460" y="20" width="200" height="40" style="fill:white;stroke:black;stroke-width:1" /><text x="470" y="30" font-size="10" style="fill:blue">xs:complexType</text><path d="M440 40 C460 40 440 40 460 40" style="fill:transparent;stroke:black" /><rect x="680" y="20" width="200" height="40" style="fill:white;stroke:black;stroke-width:1" /><text x="690" y="30" font-size="10" style="fill:blue">xs:sequence</text><path d="M660 40 C680 40 660 40 680 40" style="fill:transparent;stroke:black" /><rect x="900" y="20" width="200" height="40" style="fill:white;stroke:black;stroke-width:1" /><text x="910" y="30" font-size="10" style="fill:blue">xs:element</text><path d="M880 40 C900 40 880 40 900 40" style="fill:transparent;stroke:black" /><text x="910" y="40" font-size="8" style="fill:black">ref: datos</text><rect x="900" y="70" width="200" height="40" style="fill:white;stroke:black;stroke-width:1" /><text x="910" y="80" font-size="10" style="fill:blue">xs:element</text><path d="M880 40 C900 40 880 90 900 90" style="fill:transparent;stroke:black" /><text x="910" y="90" font-size="8" style="fill:black">ref: tramos</text><rect x="240" y="270" width="200" height="40" style="fill:white;stroke:black;stroke-width:1" /><text x="250" y="280" font-size="10" style="fill:blue">xs:element</text><path d="M220 40 C240 40 220 290 240 290" style="fill:transparent;stroke:black" /><text x="250" y="290" font-size="8" style="fill:black">name: tramos</text><rect x="460" y="270" width="200" height="40" style="fill:white;stroke:black;stroke-width:1" /><text x="470" y="280" font-size="10" style="fill:blue">xs:complexType</text><path d="M440 290 C460 290 440 290 460 290" style="fill:transparent;stroke:black" /><rect x="680" y="270" width="200" height="40" style="fill:white;stroke:black;stroke-width:1" /><text x="690" y="280" font-size="10" style="fill:blue">xs:sequence</text><path d="M660 290 C680 290 660 290 680 290" style="fill:transparent;stroke:black" /><rect x="900" y="270" width="200" height="40" style="fill:white;stroke:black;stroke-width:1" /><text x="910" y="280" font-size="10" style="fill:blue">xs:element</text><path d="M880 290 C900 290 880 290 900 290" style="fill:transparent;stroke:black" /><text x="910" y="290" font-size="8" style="fill:black">minOccurs: 1</text><text x="910" y="300" font-size="8" style="fill:black">maxOccurs: unbounded</text><text x="910" y="310" font-size="8" style="fill:black">ref: tramo</text><rect x="240" y="470" width="200" height="40" style="fill:white;stroke:black;stroke-width:1" /><text x="250" y="480" font-size="10" style="fill:blue">xs:element</text><path d="M220 40 C240 40 220 490 240 490" style="fill:transparent;stroke:black" /><text x="250" y="490" font-size="8" style="fill:black">name: datos</text><rect x="460" y="470" width="200" height="40" style="fill:white;stroke:black;stroke-width:1" /><text x="470" y="480" font-size="10" style="fill:blue">xs:complexType</text><path d="M440 490 C460 490 440 490 460 490" style="fill:transparent;stroke:black" /><rect x="680" y="470" width="200" height="40" style="fill:white;stroke:black;stroke-width:1" /><text x="690" y="480" font-size="10" style="fill:blue">xs:sequence</text><path d="M660 490 C680 490 660 490 680 490" style="fill:transparent;stroke:black" /><rect x="900" y="470" width="200" height="40" style="fill:white;stroke:black;stroke-width:1" /><text x="910" y="480" font-size="10" style="fill:blue">xs:element</text><path d="M880 490 C900 490 880 490 900 490" style="fill:transparent;stroke:black" /><text x="910" y="490" font-size="8" style="fill:black">ref: nombre</text><rect x="900" y="520" width="200" height="40" style="fill:white;stroke:black;stroke-width:1" /><text x="910" y="530" font-size="10" style="fill:blue">xs:element</text><path d="M880 490 C900 490 880 540 900 540" style="fill:transparent;stroke:black" /><text x="910" y="540" font-size="8" style="fill:black">ref: longitud</text><rect x="900" y="570" width="200" height="40" style="fill:white;stroke:black;stroke-width:1" /><text x="910" y="580" font-size="10" style="fill:blue">xs:element</text><path d="M880 490 C900 490 880 590 900 590" style="fill:transparent;stroke:black" /><text x="910" y="590" font-size="8" style="fill:black">ref: anchuraMed</text><rect x="900" y="620" width="200" height="40" style="fill:white;stroke:black;stroke-width:1" /><text x="910" y="630" font-size="10" style="fill:blue">xs:element</text><path d="M880 490 C900 490 880 640 900 640" style="fill:transparent;stroke:black" /><text x="910" y="640" font-size="8" style="fill:black">ref: fecha</text><rect x="900" y="670" width="200" height="40" style="fill:white;stroke:black;stroke-width:1" /><text x="910" y="680" font-size="10" style="fill:blue">xs:element</text><path d="M880 490 C900 490 880 690 900 690" style="fill:transparent;stroke:black" /><text x="910" y="690" font-size="8" style="fill:black">ref: hora</text><rect x="900" y="720" width="200" height="40" style="fill:white;stroke:black;stroke-width:1" /><text x="910" y="730" font-size="10" style="fill:blue">xs:element</text><path d="M880 490 C900 490 880 740 900 740" style="fill:transparent;stroke:black" /><text x="910" y="740" font-size="8" style="fill:black">ref: nVueltas</text><rect x="900" y="770" width="200" height="40" style="fill:white;stroke:black;stroke-width:1" /><text x="910" y="780" font-size="10" style="fill:blue">xs:element</text><path d="M880 490 C900 490 880 790 900 790" style="fill:transparent;stroke:black" /><text x="910" y="790" font-size="8" style="fill:black">ref: localidad</text><rect x="900" y="820" width="200" height="40" style="fill:white;stroke:black;stroke-width:1" /><text x="910" y="830" font-size="10" style="fill:blue">xs:element</text><path d="M880 490 C900 490 880 840 900 840" style="fill:transparent;stroke:black" /><text x="910" y="840" font-size="8" style="fill:black">ref: pais</text><rect x="900" y="870" width="200" height="40" style="fill:white;stroke:black;stroke-width:1" /><text x="910" y="880" font-size="10" style="fill:blue">xs:element</text><path d="M880 490 C900 490 880 890 900 890" style="fill:transparent;stroke:black" /><text x="910" y="890" font-size="8" style="fill:black">ref: referencias</text><rect x="900" y="920" width="200" height="40" style="fill:white;stroke:black;stroke-width:1" /><text x="910" y="930" font-size="10" style="fill:blue">xs:element</text><path d="M880 490 C900 490 880 940 900 940" style="fill:transparent;stroke:black" /><text x="910" y="940" font-size="8" style="fill:black">ref: fotografias</text><rect x="900" y="970" width="200" height="40" style="fill:white;stroke:black;stroke-width:1" /><text x="910" y="980" font-size="10" style="fill:blue">xs:element</text><path d="M880 490 C900 490 880 990 900 990" style="fill:transparent;stroke:black" /><text x="910" y="990" font-size="8" style="fill:black">ref: videos</text><rect x="900" y="1020" width="200" height="40" style="fill:white;stroke:black;stroke-width:1" /><text x="910" y="1030" font-size="10" style="fill:blue">xs:element</text><path d="M880 490 C900 490 880 1040 900 1040" style="fill:transparent;stroke:black" /><text x="910" y="1040" font-size="8" style="fill:black">ref: coordenadas</text><rect x="240" y="1220" width="200" height="40" style="fill:white;stroke:black;stroke-width:1" /><text x="250" y="1230" font-size="10" style="fill:blue">xs:element</text><path d="M220 40 C240 40 220 1240 240 1240" style="fill:transparent;stroke:black" /><text x="250" y="1240" font-size="8" style="fill:black">name: nombre</text><text x="250" y="1250" font-size="8" style="fill:black">type: xs:string</text><rect x="240" y="1270" width="200" height="40" style="fill:white;stroke:black;stroke-width:1" /><text x="250" y="1280" font-size="10" style="fill:blue">xs:element</text><path d="M220 40 C240 40 220 1290 240 1290" style="fill:transparent;stroke:black" /><text x="250" y="1290" font-size="8" style="fill:black">name: longitud</text><text x="250" y="1300" font-size="8" style="fill:black">type: xs:decimal</text><rect x="240" y="1320" width="200" height="40" style="fill:white;stroke:black;stroke-width:1" /><text x="250" y="1330" font-size="10" style="fill:blue">xs:element</text><path d="M220 40 C240 40 220 1340 240 1340" style="fill:transparent;stroke:black" /><text x="250" y="1340" font-size="8" style="fill:black">name: anchuraMed</text><text x="250" y="1350" font-size="8" style="fill:black">type: xs:decimal</text><rect x="240" y="1370" width="200" height="40" style="fill:white;stroke:black;stroke-width:1" /><text x="250" y="1380" font-size="10" style="fill:blue">xs:element</text><path d="M220 40 C240 40 220 1390 240 1390" style="fill:transparent;stroke:black" /><text x="250" y="1390" font-size="8" style="fill:black">name: fecha</text><text x="250" y="1400" font-size="8" style="fill:black">type: xs:date</text><rect x="240" y="1420" width="200" height="40" style="fill:white;stroke:black;stroke-width:1" /><text x="250" y="1430" font-size="10" style="fill:blue">xs:element</text><path d="M220 40 C240 40 220 1440 240 1440" style="fill:transparent;stroke:black" /><text x="250" y="1440" font-size="8" style="fill:black">name: hora</text><text x="250" y="1450" font-size="8" style="fill:black">type: xs:time</text><rect x="240" y="1470" width="200" height="40" style="fill:white;stroke:black;stroke-width:1" /><text x="250" y="1480" font-size="10" style="fill:blue">xs:element</text><path d="M220 40 C240 40 220 1490 240 1490" style="fill:transparent;stroke:black" /><text x="250" y="1490" font-size="8" style="fill:black">name: nVueltas</text><rect x="460" y="1470" width="200" height="40" style="fill:white;stroke:black;stroke-width:1" /><text x="470" y="1480" font-size="10" style="fill:blue">xs:simpleType</text><path d="M440 1490 C460 1490 440 1490 460 1490" style="fill:transparent;stroke:black" /><rect x="680" y="1470" width="200" height="40" style="fill:white;stroke:black;stroke-width:1" /><text x="690" y="1480" font-size="10" style="fill:blue">xs:restriction</text><path d="M660 1490 C680 1490 660 1490 680 1490" style="fill:transparent;stroke:black" /><text x="690" y="1490" font-size="8" style="fill:black">base: xs:integer</text><rect x="900" y="1470" width="200" height="40" style="fill:white;stroke:black;stroke-width:1" /><text x="910" y="1480" font-size="10" style="fill:blue">xs:minInclusive</text><path d="M880 1490 C900 1490 880 1490 900 1490" style="fill:transparent;stroke:black" /><text x="910" y="1490" font-size="8" style="fill:black">value: 1</text><rect x="240" y="1670" width="200" height="40" style="fill:white;stroke:black;stroke-width:1" /><text x="250" y="1680" font-size="10" style="fill:blue">xs:element</text><path d="M220 40 C240 40 220 1690 240 1690" style="fill:transparent;stroke:black" /><text x="250" y="1690" font-size="8" style="fill:black">name: localidad</text><text x="250" y="1700" font-size="8" style="fill:black">type: xs:string</text><rect x="240" y="1720" width="200" height="40" style="fill:white;stroke:black;stroke-width:1" /><text x="250" y="1730" font-size="10" style="fill:blue">xs:element</text><path d="M220 40 C240 40 220 1740 240 1740" style="fill:transparent;stroke:black" /><text x="250" y="1740" font-size="8" style="fill:black">name: pais</text><text x="250" y="1750" font-size="8" style="fill:black">type: xs:string</text><rect x="240" y="1770" width="200" height="40" style="fill:white;stroke:black;stroke-width:1" /><text x="250" y="1780" font-size="10" style="fill:blue">xs:element</text><path d="M220 40 C240 40 220 1790 240 1790" style="fill:transparent;stroke:black" /><text x="250" y="1790" font-size="8" style="fill:black">name: referencias</text><rect x="460" y="1770" width="200" height="40" style="fill:white;stroke:black;stroke-width:1" /><text x="470" y="1780" font-size="10" style="fill:blue">xs:complexType</text><path d="M440 1790 C460 1790 440 1790 460 1790" style="fill:transparent;stroke:black" /><rect x="680" y="1770" width="200" height="40" style="fill:white;stroke:black;stroke-width:1" /><text x="690" y="1780" font-size="10" style="fill:blue">xs:sequence</text><path d="M660 1790 C680 1790 660 1790 680 1790" style="fill:transparent;stroke:black" /><rect x="900" y="1770" width="200" height="40" style="fill:white;stroke:black;stroke-width:1" /><text x="910" y="1780" font-size="10" style="fill:blue">xs:element</text><path d="M880 1790 C900 1790 880 1790 900 1790" style="fill:transparent;stroke:black" /><text x="910" y="1790" font-size="8" style="fill:black">minOccurs: 3</text><text x="910" y="1800" font-size="8" style="fill:black">maxOccurs: unbounded</text><text x="910" y="1810" font-size="8" style="fill:black">ref: referencia</text><rect x="240" y="1970" width="200" height="40" style="fill:white;stroke:black;stroke-width:1" /><text x="250" y="1980" font-size="10" style="fill:blue">xs:element</text><path d="M220 40 C240 40 220 1990 240 1990" style="fill:transparent;stroke:black" /><text x="250" y="1990" font-size="8" style="fill:black">name: referencia</text><text x="250" y="2000" font-size="8" style="fill:black">type: xs:string</text><rect x="240" y="2020" width="200" height="40" style="fill:white;stroke:black;stroke-width:1" /><text x="250" y="2030" font-size="10" style="fill:blue">xs:element</text><path d="M220 40 C240 40 220 2040 240 2040" style="fill:transparent;stroke:black" /><text x="250" y="2040" font-size="8" style="fill:black">name: fotografias</text><rect x="460" y="2020" width="200" height="40" style="fill:white;stroke:black;stroke-width:1" /><text x="470" y="2030" font-size="10" style="fill:blue">xs:complexType</text><path d="M440 2040 C460 2040 440 2040 460 2040" style="fill:transparent;stroke:black" /><rect x="680" y="2020" width="200" height="40" style="fill:white;stroke:black;stroke-width:1" /><text x="690" y="2030" font-size="10" style="fill:blue">xs:sequence</text><path d="M660 2040 C680 2040 660 2040 680 2040" style="fill:transparent;stroke:black" /><rect x="900" y="2020" width="200" height="40" style="fill:white;stroke:black;stroke-width:1" /><text x="910" y="2030" font-size="10" style="fill:blue">xs:element</text><path d="M880 2040 C900 2040 880 2040 900 2040" style="fill:transparent;stroke:black" /><text x="910" y="2040" font-size="8" style="fill:black">minOccurs: 1</text><text x="910" y="2050" font-size="8" style="fill:black">maxOccurs: 5</text><text x="910" y="2060" font-size="8" style="fill:black">ref: foto</text><rect x="240" y="2220" width="200" height="40" style="fill:white;stroke:black;stroke-width:1" /><text x="250" y="2230" font-size="10" style="fill:blue">xs:element</text><path d="M220 40 C240 40 220 2240 240 2240" style="fill:transparent;stroke:black" /><text x="250" y="2240" font-size="8" style="fill:black">name: foto</text><text x="250" y="2250" font-size="8" style="fill:black">type: xs:string</text><rect x="240" y="2270" width="200" height="40" style="fill:white;stroke:black;stroke-width:1" /><text x="250" y="2280" font-size="10" style="fill:blue">xs:element</text><path d="M220 40 C240 40 220 2290 240 2290" style="fill:transparent;stroke:black" /><text x="250" y="2290" font-size="8" style="fill:black">name: videos</text><rect x="460" y="2270" width="200" height="40" style="fill:white;stroke:black;stroke-width:1" /><text x="470" y="2280" font-size="10" style="fill:blue">xs:complexType</text><path d="M440 2290 C460 2290 440 2290 460 2290" style="fill:transparent;stroke:black" /><rect x="680" y="2270" width="200" height="40" style="fill:white;stroke:black;stroke-width:1" /><text x="690" y="2280" font-size="10" style="fill:blue">xs:sequence</text><path d="M660 2290 C680 2290 660 2290 680 2290" style="fill:transparent;stroke:black" /><rect x="900" y="2270" width="200" height="40" style="fill:white;stroke:black;stroke-width:1" /><text x="910" y="2280" font-size="10" style="fill:blue">xs:element</text><path d="M880 2290 C900 2290 880 2290 900 2290" style="fill:transparent;stroke:black" /><text x="910" y="2290" font-size="8" style="fill:black">minOccurs: 0</text><text x="910" y="2300" font-size="8" style="fill:black">maxOccurs: 3</text><text x="910" y="2310" font-size="8" style="fill:black">ref: video</text><rect x="240" y="2470" width="200" height="40" style="fill:white;stroke:black;stroke-width:1" /><text x="250" y="2480" font-size="10" style="fill:blue">xs:element</text><path d="M220 40 C240 40 220 2490 240 2490" style="fill:transparent;stroke:black" /><text x="250" y="2490" font-size="8" style="fill:black">name: video</text><text x="250" y="2500" font-size="8" style="fill:black">type: xs:string</text><rect x="240" y="2520" width="200" height="40" style="fill:white;stroke:black;stroke-width:1" /><text x="250" y="2530" font-size="10" style="fill:blue">xs:element</text><path d="M220 40 C240 40 220 2540 240 2540" style="fill:transparent;stroke:black" /><text x="250" y="2540" font-size="8" style="fill:black">name: coordenadas</text><rect x="460" y="2520" width="200" height="40" style="fill:white;stroke:black;stroke-width:1" /><text x="470" y="2530" font-size="10" style="fill:blue">xs:complexType</text><path d="M440 2540 C460 2540 440 2540 460 2540" style="fill:transparent;stroke:black" /><rect x="680" y="2520" width="200" height="40" style="fill:white;stroke:black;stroke-width:1" /><text x="690" y="2530" font-size="10" style="fill:blue">xs:sequence</text><path d="M660 2540 C680 2540 660 2540 680 2540" style="fill:transparent;stroke:black" /><rect x="900" y="2520" width="200" height="40" style="fill:white;stroke:black;stroke-width:1" /><text x="910" y="2530" font-size="10" style="fill:blue">xs:element</text><path d="M880 2540 C900 2540 880 2540 900 2540" style="fill:transparent;stroke:black" /><text x="910" y="2540" font-size="8" style="fill:black">ref: longitudCircuito</text><rect x="900" y="2570" width="200" height="40" style="fill:white;stroke:black;stroke-width:1" /><text x="910" y="2580" font-size="10" style="fill:blue">xs:element</text><path d="M880 2540 C900 2540 880 2590 900 2590" style="fill:transparent;stroke:black" /><text x="910" y="2590" font-size="8" style="fill:black">ref: latitudCircuito</text><rect x="900" y="2620" width="200" height="40" style="fill:white;stroke:black;stroke-width:1" /><text x="910" y="2630" font-size="10" style="fill:blue">xs:element</text><path d="M880 2540 C900 2540 880 2640 900 2640" style="fill:transparent;stroke:black" /><text x="910" y="2640" font-size="8" style="fill:black">ref: altitudCircuito</text><rect x="240" y="2820" width="200" height="40" style="fill:white;stroke:black;stroke-width:1" /><text x="250" y="2830" font-size="10" style="fill:blue">xs:element</text><path d="M220 40 C240 40 220 2840 240 2840" style="fill:transparent;stroke:black" /><text x="250" y="2840" font-size="8" style="fill:black">name: longitudCircuito</text><text x="250" y="2850" font-size="8" style="fill:black">type: xs:decimal</text><rect x="240" y="2870" width="200" height="40" style="fill:white;stroke:black;stroke-width:1" /><text x="250" y="2880" font-size="10" style="fill:blue">xs:element</text><path d="M220 40 C240 40 220 2890 240 2890" style="fill:transparent;stroke:black" /><text x="250" y="2890" font-size="8" style="fill:black">name: latitudCircuito</text><text x="250" y="2900" font-size="8" style="fill:black">type: xs:decimal</text><rect x="240" y="2920" width="200" height="40" style="fill:white;stroke:black;stroke-width:1" /><text x="250" y="2930" font-size="10" style="fill:blue">xs:element</text><path d="M220 40 C240 40 220 2940 240 2940" style="fill:transparent;stroke:black" /><text x="250" y="2940" font-size="8" style="fill:black">name: altitudCircuito</text><text x="250" y="2950" font-size="8" style="fill:black">type: xs:decimal</text><rect x="240" y="2970" width="200" height="40" style="fill:white;stroke:black;stroke-width:1" /><text x="250" y="2980" font-size="10" style="fill:blue">xs:element</text><path d="M220 40 C240 40 220 2990 240 2990" style="fill:transparent;stroke:black" /><text x="250" y="2990" font-size="8" style="fill:black">name: tramo</text><rect x="460" y="2970" width="200" height="40" style="fill:white;stroke:black;stroke-width:1" /><text x="470" y="2980" font-size="10" style="fill:blue">xs:complexType</text><path d="M440 2990 C460 2990 440 2990 460 2990" style="fill:transparent;stroke:black" /><rect x="680" y="2970" width="200" height="40" style="fill:white;stroke:black;stroke-width:1" /><text x="690" y="2980" font-size="10" style="fill:blue">xs:sequence</text><path d="M660 2990 C680 2990 660 2990 680 2990" style="fill:transparent;stroke:black" /><rect x="900" y="2970" width="200" height="40" style="fill:white;stroke:black;stroke-width:1" /><text x="910" y="2980" font-size="10" style="fill:blue">xs:element</text><path d="M880 2990 C900 2990 880 2990 900 2990" style="fill:transparent;stroke:black" /><text x="910" y="2990" font-size="8" style="fill:black">ref: dist</text><rect x="900" y="3020" width="200" height="40" style="fill:white;stroke:black;stroke-width:1" /><text x="910" y="3030" font-size="10" style="fill:blue">xs:element</text><path d="M880 2990 C900 2990 880 3040 900 3040" style="fill:transparent;stroke:black" /><text x="910" y="3040" font-size="8" style="fill:black">ref: coordenadasTramo</text><rect x="900" y="3070" width="200" height="40" style="fill:white;stroke:black;stroke-width:1" /><text x="910" y="3080" font-size="10" style="fill:blue">xs:element</text><path d="M880 2990 C900 2990 880 3090 900 3090" style="fill:transparent;stroke:black" /><text x="910" y="3090" font-size="8" style="fill:black">ref: nSector</text><rect x="680" y="3170" width="200" height="40" style="fill:white;stroke:black;stroke-width:1" /><text x="690" y="3180" font-size="10" style="fill:blue">xs:attribute</text><path d="M660 2990 C680 2990 660 3190 680 3190" style="fill:transparent;stroke:black" /><text x="690" y="3190" font-size="8" style="fill:black">name: distUnidad</text><text x="690" y="3200" font-size="8" style="fill:black">type: xs:string</text><rect x="240" y="3320" width="200" height="40" style="fill:white;stroke:black;stroke-width:1" /><text x="250" y="3330" font-size="10" style="fill:blue">xs:attribute</text><path d="M220 40 C240 40 220 3340 240 3340" style="fill:transparent;stroke:black" /><text x="250" y="3340" font-size="8" style="fill:black">name: distUnidad</text><rect x="460" y="3320" width="200" height="40" style="fill:white;stroke:black;stroke-width:1" /><text x="470" y="3330" font-size="10" style="fill:blue">xs:simpleType</text><path d="M440 3340 C460 3340 440 3340 460 3340" style="fill:transparent;stroke:black" /><rect x="680" y="3320" width="200" height="40" style="fill:white;stroke:black;stroke-width:1" /><text x="690" y="3330" font-size="10" style="fill:blue">xs:restriction</text><path d="M660 3340 C680 3340 660 3340 680 3340" style="fill:transparent;stroke:black" /><text x="690" y="3340" font-size="8" style="fill:black">base: xs:string</text><rect x="900" y="3320" width="200" height="40" style="fill:white;stroke:black;stroke-width:1" /><text x="910" y="3330" font-size="10" style="fill:blue">xs:enumeration</text><path d="M880 3340 C900 3340 880 3340 900 3340" style="fill:transparent;stroke:black" /><text x="910" y="3340" font-size="8" style="fill:black">value: m</text><rect x="900" y="3370" width="200" height="40" style="fill:white;stroke:black;stroke-width:1" /><text x="910" y="3380" font-size="10" style="fill:blue">xs:enumeration</text><path d="M880 3340 C900 3340 880 3390 900 3390" style="fill:transparent;stroke:black" /><text x="910" y="3390" font-size="8" style="fill:black">value: km</text><rect x="240" y="3570" width="200" height="40" style="fill:white;stroke:black;stroke-width:1" /><text x="250" y="3580" font-size="10" style="fill:blue">xs:element</text><path d="M220 40 C240 40 220 3590 240 3590" style="fill:transparent;stroke:black" /><text x="250" y="3590" font-size="8" style="fill:black">name: dist</text><text x="250" y="3600" font-size="8" style="fill:black">type: xs:decimal</text><rect x="240" y="3620" width="200" height="40" style="fill:white;stroke:black;stroke-width:1" /><text x="250" y="3630" font-size="10" style="fill:blue">xs:element</text><path d="M220 40 C240 40 220 3640 240 3640" style="fill:transparent;stroke:black" /><text x="250" y="3640" font-size="8" style="fill:black">name: coordenadasTramo</text><rect x="460" y="3620" width="200" height="40" style="fill:white;stroke:black;stroke-width:1" /><text x="470" y="3630" font-size="10" style="fill:blue">xs:complexType</text><path d="M440 3640 C460 3640 440 3640 460 3640" style="fill:transparent;stroke:black" /><rect x="680" y="3620" width="200" height="40" style="fill:white;stroke:black;stroke-width:1" /><text x="690" y="3630" font-size="10" style="fill:blue">xs:sequence</text><path d="M660 3640 C680 3640 660 3640 680 3640" style="fill:transparent;stroke:black" /><rect x="900" y="3620" width="200" height="40" style="fill:white;stroke:black;stroke-width:1" /><text x="910" y="3630" font-size="10" style="fill:blue">xs:element</text><path d="M880 3640 C900 3640 880 3640 900 3640" style="fill:transparent;stroke:black" /><text x="910" y="3640" font-size="8" style="fill:black">ref: longitudTramo</text><rect x="900" y="3670" width="200" height="40" style="fill:white;stroke:black;stroke-width:1" /><text x="910" y="3680" font-size="10" style="fill:blue">xs:element</text><path d="M880 3640 C900 3640 880 3690 900 3690" style="fill:transparent;stroke:black" /><text x="910" y="3690" font-size="8" style="fill:black">ref: latitudTramo</text><rect x="900" y="3720" width="200" height="40" style="fill:white;stroke:black;stroke-width:1" /><text x="910" y="3730" font-size="10" style="fill:blue">xs:element</text><path d="M880 3640 C900 3640 880 3740 900 3740" style="fill:transparent;stroke:black" /><text x="910" y="3740" font-size="8" style="fill:black">ref: altitudTramo</text><rect x="240" y="3920" width="200" height="40" style="fill:white;stroke:black;stroke-width:1" /><text x="250" y="3930" font-size="10" style="fill:blue">xs:element</text><path d="M220 40 C240 40 220 3940 240 3940" style="fill:transparent;stroke:black" /><text x="250" y="3940" font-size="8" style="fill:black">name: longitudTramo</text><text x="250" y="3950" font-size="8" style="fill:black">type: xs:decimal</text><rect x="240" y="3970" width="200" height="40" style="fill:white;stroke:black;stroke-width:1" /><text x="250" y="3980" font-size="10" style="fill:blue">xs:element</text><path d="M220 40 C240 40 220 3990 240 3990" style="fill:transparent;stroke:black" /><text x="250" y="3990" font-size="8" style="fill:black">name: latitudTramo</text><text x="250" y="4000" font-size="8" style="fill:black">type: xs:decimal</text><rect x="240" y="4020" width="200" height="40" style="fill:white;stroke:black;stroke-width:1" /><text x="250" y="4030" font-size="10" style="fill:blue">xs:element</text><path d="M220 40 C240 40 220 4040 240 4040" style="fill:transparent;stroke:black" /><text x="250" y="4040" font-size="8" style="fill:black">name: altitudTramo</text><text x="250" y="4050" font-size="8" style="fill:black">type: xs:decimal</text><rect x="240" y="4070" width="200" height="40" style="fill:white;stroke:black;stroke-width:1" /><text x="250" y="4080" font-size="10" style="fill:blue">xs:element</text><path d="M220 40 C240 40 220 4090 240 4090" style="fill:transparent;stroke:black" /><text x="250" y="4090" font-size="8" style="fill:black">name: nSector</text><text x="250" y="4100" font-size="8" style="fill:black">type: xs:integer</text></svg>